<?xml version="1.0" standalone="no"?>
<svg width="567.429" height="348.106" viewBox="0 0 567.429 348.106" xmlns="http://www.w3.org/2000/svg" shape-rendering="crispEdges">
<title>
output/figure2_texono_medium.svg
</title>
<desc>
Creator: ROOT Version 6.36.000
CreationDate: Fri Sep 25 14:24:05 2026</desc>
<defs>
</defs>
<rect x="0.5" y="0" width="566.929" height="347.606" fill="white"/>
<rect x="68.5315" y="34.7606" width="442.205" height="264.181" fill="white"/>
<rect x="68.5315" y="34.7606" width="442.205" height="264.181" fill="none" stroke="black"/>
<rect x="68.5315" y="34.7606" width="442.205" height="264.181" fill="white"/>
<rect x="68.5315" y="34.7606" width="442.205" height="264.181" fill="none" stroke="black"/>
<path d="M68.5315,298.941h 442.205" fill="none" stroke="black"/>
<path d="M68.5316,290.807v 8.13398" fill="none" stroke="black"/>
<text xml:space="preserve" x="74.4698" y="309.328" fill="black" font-size="7.94111" font-family="Helvetica">2
</text>
<text xml:space="preserve" x="70.8489" y="309.328" fill="black" font-size="7.94111" font-family="Times">&#8722;
</text>
<text xml:space="preserve" x="58.4344" y="314.501" fill="black" font-size="11.6617" font-family="Helvetica">10
</text>
<path d="M85.1712,294.874v 4.06699" fill="none" stroke="black"/>
<path d="M94.9047,294.874v 4.06699" fill="none" stroke="black"/>
<path d="M101.811,294.874v 4.06699" fill="none" stroke="black"/>
<path d="M107.168,294.874v 4.06699" fill="none" stroke="black"/>
<path d="M111.544,294.874v 4.06699" fill="none" stroke="black"/>
<path d="M115.245,294.874v 4.06699" fill="none" stroke="black"/>
<path d="M118.45,294.874v 4.06699" fill="none" stroke="black"/>
<path d="M121.278,294.874v 4.06699" fill="none" stroke="black"/>
<path d="M123.807,290.807v 8.13398" fill="none" stroke="black"/>
<text xml:space="preserve" x="129.818" y="309.328" fill="black" font-size="7.94111" font-family="Helvetica">1
</text>
<text xml:space="preserve" x="126.197" y="309.328" fill="black" font-size="7.94111" font-family="Times">&#8722;
</text>
<text xml:space="preserve" x="113.782" y="314.501" fill="black" font-size="11.6617" font-family="Helvetica">10
</text>
<path d="M140.447,294.874v 4.06699" fill="none" stroke="black"/>
<path d="M150.18,294.874v 4.06699" fill="none" stroke="black"/>
<path d="M157.086,294.874v 4.06699" fill="none" stroke="black"/>
<path d="M162.443,294.874v 4.06699" fill="none" stroke="black"/>
<path d="M166.82,294.874v 4.06699" fill="none" stroke="black"/>
<path d="M170.52,294.874v 4.06699" fill="none" stroke="black"/>
<path d="M173.726,294.874v 4.06699" fill="none" stroke="black"/>
<path d="M176.553,294.874v 4.06699" fill="none" stroke="black"/>
<path d="M179.083,290.807v 8.13398" fill="none" stroke="black"/>
<text xml:space="preserve" x="176.889" y="314.501" fill="black" font-size="11.6617" font-family="Helvetica">1
</text>
<path d="M195.722,294.874v 4.06699" fill="none" stroke="black"/>
<path d="M205.456,294.874v 4.06699" fill="none" stroke="black"/>
<path d="M212.362,294.874v 4.06699" fill="none" stroke="black"/>
<path d="M217.719,294.874v 4.06699" fill="none" stroke="black"/>
<path d="M222.095,294.874v 4.06699" fill="none" stroke="black"/>
<path d="M225.796,294.874v 4.06699" fill="none" stroke="black"/>
<path d="M229.002,294.874v 4.06699" fill="none" stroke="black"/>
<path d="M231.829,294.874v 4.06699" fill="none" stroke="black"/>
<path d="M234.358,290.807v 8.13398" fill="none" stroke="black"/>
<text xml:space="preserve" x="228.099" y="314.501" fill="black" font-size="11.6617" font-family="Helvetica">10
</text>
<path d="M250.998,294.874v 4.06699" fill="none" stroke="black"/>
<path d="M260.731,294.874v 4.06699" fill="none" stroke="black"/>
<path d="M267.638,294.874v 4.06699" fill="none" stroke="black"/>
<path d="M272.994,294.874v 4.06699" fill="none" stroke="black"/>
<path d="M277.371,294.874v 4.06699" fill="none" stroke="black"/>
<path d="M281.072,294.874v 4.06699" fill="none" stroke="black"/>
<path d="M284.277,294.874v 4.06699" fill="none" stroke="black"/>
<path d="M287.105,294.874v 4.06699" fill="none" stroke="black"/>
<path d="M289.634,290.807v 8.13398" fill="none" stroke="black"/>
<text xml:space="preserve" x="293.793" y="309.328" fill="black" font-size="7.94111" font-family="Helvetica">2
</text>
<text xml:space="preserve" x="281.378" y="314.501" fill="black" font-size="11.6617" font-family="Helvetica">10
</text>
<path d="M306.273,294.874v 4.06699" fill="none" stroke="black"/>
<path d="M316.007,294.874v 4.06699" fill="none" stroke="black"/>
<path d="M322.913,294.874v 4.06699" fill="none" stroke="black"/>
<path d="M328.27,294.874v 4.06699" fill="none" stroke="black"/>
<path d="M332.647,294.874v 4.06699" fill="none" stroke="black"/>
<path d="M336.347,294.874v 4.06699" fill="none" stroke="black"/>
<path d="M339.553,294.874v 4.06699" fill="none" stroke="black"/>
<path d="M342.38,294.874v 4.06699" fill="none" stroke="black"/>
<path d="M344.909,290.807v 8.13398" fill="none" stroke="black"/>
<text xml:space="preserve" x="349.141" y="308.811" fill="black" font-size="7.94111" font-family="Helvetica">3
</text>
<text xml:space="preserve" x="336.726" y="314.501" fill="black" font-size="11.6617" font-family="Helvetica">10
</text>
<path d="M361.549,294.874v 4.06699" fill="none" stroke="black"/>
<path d="M371.283,294.874v 4.06699" fill="none" stroke="black"/>
<path d="M378.189,294.874v 4.06699" fill="none" stroke="black"/>
<path d="M383.545,294.874v 4.06699" fill="none" stroke="black"/>
<path d="M387.922,294.874v 4.06699" fill="none" stroke="black"/>
<path d="M391.623,294.874v 4.06699" fill="none" stroke="black"/>
<path d="M394.828,294.874v 4.06699" fill="none" stroke="black"/>
<path d="M397.656,294.874v 4.06699" fill="none" stroke="black"/>
<path d="M400.185,290.807v 8.13398" fill="none" stroke="black"/>
<text xml:space="preserve" x="404.489" y="309.328" fill="black" font-size="7.94111" font-family="Helvetica">4
</text>
<text xml:space="preserve" x="392.074" y="314.501" fill="black" font-size="11.6617" font-family="Helvetica">10
</text>
<path d="M416.825,294.874v 4.06699" fill="none" stroke="black"/>
<path d="M426.558,294.874v 4.06699" fill="none" stroke="black"/>
<path d="M433.464,294.874v 4.06699" fill="none" stroke="black"/>
<path d="M438.821,294.874v 4.06699" fill="none" stroke="black"/>
<path d="M443.198,294.874v 4.06699" fill="none" stroke="black"/>
<path d="M446.898,294.874v 4.06699" fill="none" stroke="black"/>
<path d="M450.104,294.874v 4.06699" fill="none" stroke="black"/>
<path d="M452.931,294.874v 4.06699" fill="none" stroke="black"/>
<path d="M455.461,290.807v 8.13398" fill="none" stroke="black"/>
<text xml:space="preserve" x="459.837" y="308.811" fill="black" font-size="7.94111" font-family="Helvetica">5
</text>
<text xml:space="preserve" x="447.422" y="314.501" fill="black" font-size="11.6617" font-family="Helvetica">10
</text>
<path d="M472.1,294.874v 4.06699" fill="none" stroke="black"/>
<path d="M481.834,294.874v 4.06699" fill="none" stroke="black"/>
<path d="M488.74,294.874v 4.06699" fill="none" stroke="black"/>
<path d="M494.097,294.874v 4.06699" fill="none" stroke="black"/>
<path d="M498.473,294.874v 4.06699" fill="none" stroke="black"/>
<path d="M502.174,294.874v 4.06699" fill="none" stroke="black"/>
<path d="M505.379,294.874v 4.06699" fill="none" stroke="black"/>
<path d="M508.207,294.874v 4.06699" fill="none" stroke="black"/>
<path d="M510.736,290.807v 8.13398" fill="none" stroke="black"/>
<text xml:space="preserve" x="514.667" y="308.811" fill="black" font-size="7.94111" font-family="Helvetica">6
</text>
<text xml:space="preserve" x="502.253" y="314.501" fill="black" font-size="11.6617" font-family="Helvetica">10
</text>
<text xml:space="preserve" x="487.769" y="321.743" fill="black" font-size="11.6617" font-family="Helvetica"> [eV]
</text>
<text xml:space="preserve" x="482.597" y="324.846" fill="black" font-size="7.94111" font-family="Helvetica">X
</text>
<text xml:space="preserve" x="473.803" y="321.743" fill="black" font-size="11.6617" font-family="Helvetica">m
</text>
<path d="M68.5315,298.941v -264.181" fill="none" stroke="black"/>
<path d="M81.4575,298.941h -12.926" fill="none" stroke="black"/>
<text xml:space="preserve" x="59.9862" y="298.983" fill="black" font-size="7.94111" font-family="Helvetica">6
</text>
<text xml:space="preserve" x="55.848" y="298.983" fill="black" font-size="7.94111" font-family="Times">&#8722;
</text>
<text xml:space="preserve" x="43.4335" y="304.155" fill="black" font-size="11.6617" font-family="Helvetica">10
</text>
<path d="M74.9945,280.451h -6.46299" fill="none" stroke="black"/>
<path d="M74.9945,269.635h -6.46299" fill="none" stroke="black"/>
<path d="M74.9945,261.961h -6.46299" fill="none" stroke="black"/>
<path d="M74.9945,256.009h -6.46299" fill="none" stroke="black"/>
<path d="M74.9945,251.145h -6.46299" fill="none" stroke="black"/>
<path d="M74.9945,247.033h -6.46299" fill="none" stroke="black"/>
<path d="M74.9945,243.471h -6.46299" fill="none" stroke="black"/>
<path d="M74.9945,240.329h -6.46299" fill="none" stroke="black"/>
<path d="M81.4575,237.519h -12.926" fill="none" stroke="black"/>
<text xml:space="preserve" x="59.9862" y="237.427" fill="black" font-size="7.94111" font-family="Helvetica">5
</text>
<text xml:space="preserve" x="55.848" y="237.427" fill="black" font-size="7.94111" font-family="Times">&#8722;
</text>
<text xml:space="preserve" x="43.4335" y="242.6" fill="black" font-size="11.6617" font-family="Helvetica">10
</text>
<path d="M74.9945,219.029h -6.46299" fill="none" stroke="black"/>
<path d="M74.9945,208.213h -6.46299" fill="none" stroke="black"/>
<path d="M74.9945,200.538h -6.46299" fill="none" stroke="black"/>
<path d="M74.9945,194.586h -6.46299" fill="none" stroke="black"/>
<path d="M74.9945,189.723h -6.46299" fill="none" stroke="black"/>
<path d="M74.9945,185.61h -6.46299" fill="none" stroke="black"/>
<path d="M74.9945,182.048h -6.46299" fill="none" stroke="black"/>
<path d="M74.9945,178.907h -6.46299" fill="none" stroke="black"/>
<path d="M81.4575,176.096h -12.926" fill="none" stroke="black"/>
<text xml:space="preserve" x="59.9862" y="176.389" fill="black" font-size="7.94111" font-family="Helvetica">4
</text>
<text xml:space="preserve" x="55.848" y="176.389" fill="black" font-size="7.94111" font-family="Times">&#8722;
</text>
<text xml:space="preserve" x="43.4335" y="181.045" fill="black" font-size="11.6617" font-family="Helvetica">10
</text>
<path d="M74.9945,157.606h -6.46299" fill="none" stroke="black"/>
<path d="M74.9945,146.79h -6.46299" fill="none" stroke="black"/>
<path d="M74.9945,139.116h -6.46299" fill="none" stroke="black"/>
<path d="M74.9945,133.163h -6.46299" fill="none" stroke="black"/>
<path d="M74.9945,128.3h -6.46299" fill="none" stroke="black"/>
<path d="M74.9945,124.188h -6.46299" fill="none" stroke="black"/>
<path d="M74.9945,120.626h -6.46299" fill="none" stroke="black"/>
<path d="M74.9945,117.484h -6.46299" fill="none" stroke="black"/>
<path d="M81.4575,114.673h -12.926" fill="none" stroke="black"/>
<text xml:space="preserve" x="59.9862" y="114.834" fill="black" font-size="7.94111" font-family="Helvetica">3
</text>
<text xml:space="preserve" x="55.848" y="114.834" fill="black" font-size="7.94111" font-family="Times">&#8722;
</text>
<text xml:space="preserve" x="43.4335" y="120.007" fill="black" font-size="11.6617" font-family="Helvetica">10
</text>
<path d="M74.9945,96.1833h -6.46299" fill="none" stroke="black"/>
<path d="M74.9945,85.3673h -6.46299" fill="none" stroke="black"/>
<path d="M74.9945,77.6932h -6.46299" fill="none" stroke="black"/>
<path d="M74.9945,71.7407h -6.46299" fill="none" stroke="black"/>
<path d="M74.9945,66.8772h -6.46299" fill="none" stroke="black"/>
<path d="M74.9945,62.7652h -6.46299" fill="none" stroke="black"/>
<path d="M74.9945,59.2031h -6.46299" fill="none" stroke="black"/>
<path d="M74.9945,56.0612h -6.46299" fill="none" stroke="black"/>
<path d="M81.4575,53.2507h -12.926" fill="none" stroke="black"/>
<text xml:space="preserve" x="59.9862" y="53.7962" fill="black" font-size="7.94111" font-family="Helvetica">2
</text>
<text xml:space="preserve" x="55.848" y="53.7962" fill="black" font-size="7.94111" font-family="Times">&#8722;
</text>
<text xml:space="preserve" x="43.4335" y="58.4516" fill="black" font-size="11.6617" font-family="Helvetica">10
</text>
<path d="M74.9945,34.7606h -6.46299" fill="none" stroke="black"/>
<g transform="rotate(-90,31.5363,200.184)">
<text xml:space="preserve" x="31.5363" y="200.184" fill="black" font-size="11.6617" font-family="Helvetica"> limit (see statistical conventions)
</text>
</g>
<g transform="rotate(-90,31.5363,206.391)">
<text xml:space="preserve" x="31.5363" y="206.391" fill="black" font-size="11.6617" font-family="Times">&#0949;
</text>
</g>
<path d="M172.173,54.6538l 1.03642, 2.30674l 1.03642, 2.30704l 1.03642, 2.30738l 1.03642, 2.30774l 1.03642, 2.30814l 1.03642, 2.30857l 1.03642, 2.30904l 1.03642, 2.30956l 1.03642, 2.31012l 1.03642, 2.31073l 1.03642, 2.3114l 1.03642, 2.31212l 1.03642,
 2.31292l 1.03642, 2.31379l 1.03642, 2.31473l 1.03642, 2.31576l 1.03642, 2.31689l 1.03642, 2.31812l 1.03642, 2.31946l 1.03642, 2.32093l 1.03642, 2.32252l 1.03642, 2.32427l 1.03642, 2.32617l 1.03642, 2.32825l 1.03642, 2.33053l 1.03642, 2.33301l
 1.03642, 2.33572l 1.03642, 2.33869l 1.03642, 2.34193l 1.03642, 2.34547l 1.03642, 2.34934l 1.03642, 2.35358l 1.03642, 2.35822l 1.03642, 2.3633l 1.03642, 2.36886l 1.03642, 2.37495l 1.03642, 2.38163l 1.03642, 2.38895l 1.03642, 2.39698l 1.03642, 2.4058l
 1.03642, 2.41549l 1.03642, 2.42614l 1.03642, 2.43786l 1.03642, 2.45077l 1.03642, 2.465l 1.03642, 2.4807l 1.03642, 2.49805l 1.03642, 2.51724l 1.03642, 2.5385l 1.03642, 2.56209l 1.03642, 2.58831l 1.03642, 2.61752l 1.03642, 2.65012l 1.03642, 2.6866l
 1.03642, 2.72753l 1.03642, 2.7736l 1.03642, 2.82563l 1.03642, 2.88463l 1.03642, 2.95182l 1.03642, 3.02873l 1.03642, 3.11728l 1.03642, 3.21992l 1.03642, 3.33981l 1.03642, 3.48113l 1.03642, 3.64949l 1.03642, 3.85264l 1.03642, 4.10158l 1.03642,
 4.41248l 1.03642, 4.81005l 1.03642, 5.33422l 1.03642, 6.05381l 1.03642, 7.09869l 1.03642, 8.74717" fill="none" stroke="#0000cc" stroke-width="3"/>
<path d="M254.05,269.616l 1.03642, -6.68935l 1.03642, -4.9423l 1.03642, -3.84794l 1.03642, -3.10004l 1.03642, -2.55816l 1.03642, -2.14876l 1.03642, -1.8296l 1.03642, -1.57464l 1.03642, -1.36698l 1.03642, -1.19516l 1.03642, -1.05113l 1.03642,
 -0.929073l 1.03642, -0.824676l 1.03642, -0.734679l 1.03642, -0.656566l 1.03642, -0.588369l 1.03642, -0.528521l 1.03642, -0.475763l 1.03642, -0.42907l 1.03642, -0.387599l 1.03642, -0.350651l 1.03642, -0.317641l 1.03642, -0.288076l 1.03642, -0.261538l
 1.03642, -0.237669l 1.03642, -0.216162l 1.03642, -0.196752l 1.03642, -0.179209l 1.03642, -0.163332l 1.03642, -0.148946l 1.03642, -0.135898l 1.03642, -0.12405l 1.03642, -0.113283l 1.03642, -0.103491l 1.03642, -0.0945777l 1.03642, -0.08646l 1.03642,
 -0.0790621l 1.03642, -0.0723163l 1.03642, -0.0661621l 1.03642, -0.060545l 1.03642, -0.0554159l 1.03642, -0.0507306l 1.03642, -0.0464493l 1.03642, -0.0425359l 1.03642, -0.0389576l 1.03642, -0.0356849l 1.03642, -0.032691l 1.03642, -0.0299515l 1.03642,
 -0.0274442l 1.03642, -0.0251491l 1.03642, -0.0230479l 1.03642, -0.0211238l 1.03642, -0.0193616l 1.03642, -0.0177476l 1.03642, -0.0162691l 1.03642, -0.0149145l 1.03642, -0.0136734l 1.03642, -0.0125361l 1.03642, -0.0114939l 1.03642, -0.0105387l
 1.03642, -0.00966326l 1.03642, -0.0088608l 1.03642, -0.00812521l 1.03642, -0.00745089l 1.03642, -0.00683269l 1.03642, -0.00626592l 1.03642, -0.00574629l 1.03642, -0.00526984l 1.03642, -0.00483299l 1.03642, -0.00443241l 1.03642, -0.0040651l 1.03642,
 -0.00372827l 1.03642, -0.0034194l 1.03642, -0.00313614l 1.03642, -0.00287638l 1.03642, -0.00263817l 1.03642, -0.0024197l 1.03642, -0.00221934l 1.03642, -0.00203558l 1.03642, -0.00186705l 1.03642, -0.00171249l 1.03642, -0.00157073l 1.03642,
 -0.00144071l 1.03642, -0.00132146l 1.03642, -0.00121209l 1.03642, -0.00111177l 1.03642, -0.00101976l 1.03642, -0.000935365l 1.03642, -0.000857959l 1.03642, -0.000786961l 1.03642, -0.00072184l 1.03642, -0.000662109l 1.03642, -0.000607322l 1.03642,
 -0.00055707l 1.03642, -0.000510977l 1.03642, -0.000468698l 1.03642, -0.000429918l 1.03642, -0.000394348l 1.03642, -0.00036172l 1.03642, -0.000331793l 1.03642, -0.000304342l 1.03642, -0.000279163l 1.03642, -0.000256067l 1.03642, -0.000234882l
 1.03642, -0.000215449l 1.03642, -0.000197625l 1.03642, -0.000181275l 1.03642, -0.000166279l 1.03642, -0.000152522l 1.03642, -0.000139904l 1.03642, -0.00012833l 1.03642, -0.000117714l 1.03642, -0.000107975l 1.03642, -9.90429e-05l 1.03642,
 -9.08494e-05l 1.03642, -8.33337e-05l 1.03642, -7.64397e-05l 1.03642, -7.01161e-05l 1.03642, -6.43157e-05l 1.03642, -5.89951e-05l 1.03642, -5.41147e-05l 1.03642, -4.9638e-05l 1.03642, -4.55316e-05l 1.03642, -4.1765e-05l 1.03642, -3.831e-05l 1.03642,
 -3.51408e-05l 1.03642, -3.22338e-05l 1.03642, -2.95672e-05l 1.03642, -2.71213e-05l 1.03642, -2.48777e-05l 1.03642, -2.28197e-05l 1.03642, -2.09319e-05l 1.03642, -1.92003e-05l 1.03642, -1.7612e-05l 1.03642, -1.6155e-05l 1.03642, -1.48186e-05l
 1.03642, -1.35928e-05l 1.03642, -1.24683e-05l 1.03642, -1.14369e-05l 1.03642, -1.04908e-05l 1.03642, -9.62291e-06" fill="none" stroke="#0000cc" stroke-width="3"/>
<path d="M166.991,55.0729l 1.03642, 2.30555l 1.03642, 2.30575l 1.03642, 2.30596l 1.03642, 2.3062l 1.03642, 2.30646l 1.03642, 2.30674l 1.03642, 2.30704l 1.03642, 2.30738l 1.03642, 2.30774l 1.03642, 2.30814l 1.03642, 2.30857l 1.03642, 2.30904l 1.03642,
 2.30956l 1.03642, 2.31012l 1.03642, 2.31073l 1.03642, 2.3114l 1.03642, 2.31212l 1.03642, 2.31292l 1.03642, 2.31379l 1.03642, 2.31473l 1.03642, 2.31576l 1.03642, 2.31689l 1.03642, 2.31812l 1.03642, 2.31946l 1.03642, 2.32093l 1.03642, 2.32252l
 1.03642, 2.32427l 1.03642, 2.32617l 1.03642, 2.32825l 1.03642, 2.33053l 1.03642, 2.33301l 1.03642, 2.33572l 1.03642, 2.33869l 1.03642, 2.34193l 1.03642, 2.34547l 1.03642, 2.34934l 1.03642, 2.35358l 1.03642, 2.35822l 1.03642, 2.3633l 1.03642,
 2.36886l 1.03642, 2.37495l 1.03642, 2.38163l 1.03642, 2.38895l 1.03642, 2.39698l 1.03642, 2.4058l 1.03642, 2.41549l 1.03642, 2.42614l 1.03642, 2.43786l 1.03642, 2.45077l 1.03642, 2.465l 1.03642, 2.4807l 1.03642, 2.49805l 1.03642, 2.51724l 1.03642,
 2.5385l 1.03642, 2.56209l 1.03642, 2.58831l 1.03642, 2.61752l 1.03642, 2.65012l 1.03642, 2.6866l 1.03642, 2.72753l 1.03642, 2.7736l 1.03642, 2.82563l 1.03642, 2.88463l 1.03642, 2.95182l 1.03642, 3.02873l 1.03642, 3.11728l 1.03642, 3.21992l 1.03642,
 3.33981l 1.03642, 3.48113l 1.03642, 3.64949l 1.03642, 3.85264l 1.03642, 4.10158l 1.03642, 4.41248l 1.03642, 4.81005l 1.03642, 5.33422l 1.03642, 6.05381l 1.03642, 7.09869l 1.03642, 8.74717" fill="none" stroke="#009999" stroke-width="2"
 stroke-dasharray=" 3, 3"/>
<path d="M254.05,281.565l 1.03642, -6.68935l 1.03642, -4.9423l 1.03642, -3.84794l 1.03642, -3.10004l 1.03642, -2.55816l 1.03642, -2.14876l 1.03642, -1.8296l 1.03642, -1.57464l 1.03642, -1.36698l 1.03642, -1.19516l 1.03642, -1.05113l 1.03642,
 -0.929073l 1.03642, -0.824676l 1.03642, -0.734679l 1.03642, -0.656566l 1.03642, -0.588369l 1.03642, -0.528521l 1.03642, -0.475763l 1.03642, -0.42907l 1.03642, -0.387599l 1.03642, -0.350651l 1.03642, -0.317641l 1.03642, -0.288076l 1.03642, -0.261538l
 1.03642, -0.237669l 1.03642, -0.216162l 1.03642, -0.196752l 1.03642, -0.179209l 1.03642, -0.163332l 1.03642, -0.148946l 1.03642, -0.135898l 1.03642, -0.12405l 1.03642, -0.113283l 1.03642, -0.103491l 1.03642, -0.0945777l 1.03642, -0.08646l 1.03642,
 -0.0790621l 1.03642, -0.0723163l 1.03642, -0.0661621l 1.03642, -0.060545l 1.03642, -0.0554159l 1.03642, -0.0507306l 1.03642, -0.0464493l 1.03642, -0.0425359l 1.03642, -0.0389576l 1.03642, -0.0356849l 1.03642, -0.032691l 1.03642, -0.0299515l 1.03642,
 -0.0274442l 1.03642, -0.0251491l 1.03642, -0.0230479l 1.03642, -0.0211238l 1.03642, -0.0193616l 1.03642, -0.0177476l 1.03642, -0.0162691l 1.03642, -0.0149145l 1.03642, -0.0136734l 1.03642, -0.0125361l 1.03642, -0.0114939l 1.03642, -0.0105387l
 1.03642, -0.00966326l 1.03642, -0.0088608l 1.03642, -0.00812521l 1.03642, -0.00745089l 1.03642, -0.00683269l 1.03642, -0.00626592l 1.03642, -0.00574629l 1.03642, -0.00526984l 1.03642, -0.00483299l 1.03642, -0.00443241l 1.03642, -0.0040651l 1.03642,
 -0.00372827l 1.03642, -0.0034194l 1.03642, -0.00313614l 1.03642, -0.00287638l 1.03642, -0.00263817l 1.03642, -0.0024197l 1.03642, -0.00221934l 1.03642, -0.00203558l 1.03642, -0.00186705l 1.03642, -0.00171249l 1.03642, -0.00157073l 1.03642,
 -0.00144071l 1.03642, -0.00132146l 1.03642, -0.00121209l 1.03642, -0.00111177l 1.03642, -0.00101976l 1.03642, -0.000935365l 1.03642, -0.000857959l 1.03642, -0.000786961l 1.03642, -0.00072184l 1.03642, -0.000662109l 1.03642, -0.000607322l 1.03642,
 -0.00055707l 1.03642, -0.000510977l 1.03642, -0.000468698l 1.03642, -0.000429918l 1.03642, -0.000394348l 1.03642, -0.00036172l 1.03642, -0.000331793l 1.03642, -0.000304342l 1.03642, -0.000279163l 1.03642, -0.000256067l 1.03642, -0.000234882l
 1.03642, -0.000215449l 1.03642, -0.000197625l 1.03642, -0.000181275l 1.03642, -0.000166279l 1.03642, -0.000152522l 1.03642, -0.000139904l 1.03642, -0.00012833l 1.03642, -0.000117714l 1.03642, -0.000107975l 1.03642, -9.90429e-05l 1.03642,
 -9.08494e-05l 1.03642, -8.33337e-05l 1.03642, -7.64397e-05l 1.03642, -7.01161e-05l 1.03642, -6.43157e-05l 1.03642, -5.89951e-05l 1.03642, -5.41147e-05l 1.03642, -4.9638e-05l 1.03642, -4.55316e-05l 1.03642, -4.1765e-05l 1.03642, -3.831e-05l 1.03642,
 -3.51408e-05l 1.03642, -3.22338e-05l 1.03642, -2.95672e-05l 1.03642, -2.71213e-05l 1.03642, -2.48777e-05l 1.03642, -2.28197e-05l 1.03642, -2.09319e-05l 1.03642, -1.92003e-05l 1.03642, -1.7612e-05l 1.03642, -1.6155e-05l 1.03642, -1.48186e-05l
 1.03642, -1.35928e-05l 1.03642, -1.24683e-05l 1.03642, -1.14369e-05l 1.03642, -1.04908e-05l 1.03642, -9.62291e-06" fill="none" stroke="#009999" stroke-width="2" stroke-dasharray=" 3, 3"/>
<path d="M68.5315,217.727h 442.205" fill="none" stroke="#cc0000" stroke-width="3" stroke-dasharray=" 3, 3"/>
<path d="M68.5315,225.563h 88.4409l 7.37008, 2.84217e-14l 7.37008, 8.52651e-14l 7.37008, 1.42109e-13l 7.37008, 1.98952e-13l 7.37008, 3.97904e-13l 7.37008, 7.95808e-13l 7.37008, 1.42109e-12l 7.37008, 2.70006e-12l 7.37008, 4.91696e-12l 7.37008,
 9.09495e-12l 7.37008, 1.67972e-11l 7.37008, 3.10081e-11l 7.37008, 5.7355e-11l 7.37008, 1.05985e-10l 7.37008, 1.95797e-10l 7.37008, 3.61894e-10l 7.37008, 6.68621e-10l 7.37008, 1.23555e-09l 7.37008, 2.28309e-09l 7.37008, 4.21892e-09l 7.37008,
 7.79579e-09l 7.37008, 1.44055e-08l 7.37008, 2.66192e-08l 7.37008, 4.91883e-08l 7.37008, 9.08927e-08l 7.37008, 1.67956e-07l 7.37008, 3.10359e-07l 7.37008, 5.73502e-07l 7.37008, 1.05976e-06l 7.37008, 1.95833e-06l 7.37008, 3.61887e-06l 7.37008,
 6.68771e-06l 7.37008, 1.23599e-05l 7.37008, 2.28461e-05l 7.37008, 4.22394e-05l 7.37008, 7.81319e-05l 7.37008, 0.000144648l 7.37008, 0.000268217l 7.37008, 0.000498793l 7.37008, 0.000932494l 7.37008, 0.00175986l 7.37008, 0.0033767l 7.37008, 0.0066608l
 7.37008, 0.0137168l 7.37008, 0.0299769l 7.37008, 0.0701478l 7.37008, 0.174159l 7.37008, 0.444615" fill="none" stroke="#cc00cc" stroke-width="2" stroke-dasharray=" 5, 5"/>
<path d="M174.698,34.7606l 1.04579, 2.27886" fill="none" stroke="black" stroke-width="2"/>
<path d="M175.744,37.0395l 4.44826, 9.95861l 4.50174, 9.93456l 4.43934, 9.95861l 4.44826, 9.93456l 4.50174, 9.93456l 4.43934, 9.95861l 4.50174, 9.93456l 4.44826, 9.81428l 4.43934, 9.93456l 4.50174, 9.95861l 4.43934, 9.93456l 4.50174, 9.95861l
 4.44826, 9.93456l 4.43934, 9.95861l 4.50174, 9.93456l 4.44826, 9.81428l 4.49283, 8.46722h 259.051" fill="none" stroke="black" stroke-width="2"/>
<rect x="244.28" y="38.2367" width="260.787" height="97.3297" fill="white"/>
<text xml:space="preserve" x="396.73" y="47.0717" fill="black" font-size="6.02768" font-family="Helvetica">-5
</text>
<text xml:space="preserve" x="385.35" y="51.2098" fill="black" font-size="8.79152" font-family="Helvetica"> 10
</text>
<text xml:space="preserve" x="380.694" y="51.2098" fill="black" font-size="8.79152" font-family="Times">&#0215;
</text>
<text xml:space="preserve" x="309.311" y="51.2098" fill="black" font-size="8.79152" font-family="Helvetica">Park published: 2.1 
</text>
<path d="M254.059,47.9697h 45.6378" fill="none" stroke="#cc0000" stroke-width="3" stroke-dasharray=" 3, 3"/>
<text xml:space="preserve" x="309.311" y="69.8316" fill="black" font-size="8.79152" font-family="Helvetica">Danilov published (PDF extraction)
</text>
<path d="M254.059,67.4356h 45.6378" fill="none" stroke="black" stroke-width="2"/>
<text xml:space="preserve" x="444.319" y="89.4879" fill="black" font-size="8.79152" font-family="Helvetica">)
</text>
<text xml:space="preserve" x="439.146" y="89.4879" fill="black" font-size="8.79152" font-family="Times">&#0963;
</text>
<text xml:space="preserve" x="309.311" y="89.4879" fill="black" font-size="8.79152" font-family="Helvetica">Recomputed Park convention (1.96
</text>
<path d="M254.059,86.9015h 45.6378" fill="none" stroke="#cc00cc" stroke-width="2" stroke-dasharray=" 5, 5"/>
<text xml:space="preserve" x="309.311" y="109.144" fill="black" font-size="8.79152" font-family="Helvetica">This work: medium, efficiency 0.167
</text>
<path d="M254.059,106.367h 45.6378" fill="none" stroke="#0000cc" stroke-width="3"/>
<text xml:space="preserve" x="309.311" y="128.283" fill="black" font-size="8.79152" font-family="Helvetica">This work: medium, unit efficiency
</text>
<path d="M254.059,125.833h 45.6378" fill="none" stroke="#009999" stroke-width="2" stroke-dasharray=" 3, 3"/></svg>
