<?xml version="1.0" standalone="no"?>
<svg width="567.429" height="330.203" viewBox="0 0 567.429 330.203" xmlns="http://www.w3.org/2000/svg" shape-rendering="crispEdges">
<title>
output/compton_validity.svg
</title>
<desc>
Creator: ROOT Version 6.36.000
CreationDate: Thu Sep 17 13:07:51 2026</desc>
<defs>
</defs>
<rect x="0.5" y="0" width="566.929" height="329.703" fill="white"/>
<rect x="57.1929" y="32.9703" width="453.543" height="263.763" fill="white"/>
<rect x="57.1929" y="32.9703" width="453.543" height="263.763" fill="none" stroke="black"/>
<rect x="57.1929" y="32.9703" width="453.543" height="263.763" fill="white"/>
<rect x="57.1929" y="32.9703" width="453.543" height="263.763" fill="none" stroke="black"/>
<path d="M57.1929,296.733h 453.543" fill="none" stroke="black"/>
<path d="M57.1931,288.82v 7.91288" fill="none" stroke="black"/>
<text xml:space="preserve" x="63.4921" y="306.249" fill="black" font-size="7.55787" font-family="Helvetica">1
</text>
<text xml:space="preserve" x="59.4714" y="306.249" fill="black" font-size="7.55787" font-family="Times">&#8722;
</text>
<text xml:space="preserve" x="48.0792" y="311.61" fill="black" font-size="11.0868" font-family="Helvetica">10
</text>
<path d="M125.458,292.777v 3.95644" fill="none" stroke="black"/>
<path d="M165.391,292.777v 3.95644" fill="none" stroke="black"/>
<path d="M193.723,292.777v 3.95644" fill="none" stroke="black"/>
<path d="M215.7,292.777v 3.95644" fill="none" stroke="black"/>
<path d="M233.656,292.777v 3.95644" fill="none" stroke="black"/>
<path d="M248.837,292.777v 3.95644" fill="none" stroke="black"/>
<path d="M261.988,292.777v 3.95644" fill="none" stroke="black"/>
<path d="M273.588,292.777v 3.95644" fill="none" stroke="black"/>
<path d="M283.965,288.82v 7.91288" fill="none" stroke="black"/>
<text xml:space="preserve" x="281.954" y="311.61" fill="black" font-size="11.0868" font-family="Helvetica">1
</text>
<path d="M352.23,292.777v 3.95644" fill="none" stroke="black"/>
<path d="M392.162,292.777v 3.95644" fill="none" stroke="black"/>
<path d="M420.495,292.777v 3.95644" fill="none" stroke="black"/>
<path d="M442.471,292.777v 3.95644" fill="none" stroke="black"/>
<path d="M460.427,292.777v 3.95644" fill="none" stroke="black"/>
<path d="M475.609,292.777v 3.95644" fill="none" stroke="black"/>
<path d="M488.76,292.777v 3.95644" fill="none" stroke="black"/>
<path d="M500.36,292.777v 3.95644" fill="none" stroke="black"/>
<path d="M510.736,288.82v 7.91288" fill="none" stroke="black"/>
<text xml:space="preserve" x="504.437" y="311.61" fill="black" font-size="11.0868" font-family="Helvetica">10
</text>
<text xml:space="preserve" x="479.642" y="316.971" fill="black" font-size="11.0868" font-family="Helvetica"> [MeV]
</text>
<text xml:space="preserve" x="475.621" y="319.652" fill="black" font-size="7.55787" font-family="Times">&#0947;
</text>
<text xml:space="preserve" x="468.92" y="316.971" fill="black" font-size="11.0868" font-family="Helvetica">E
</text>
<path d="M57.1929,296.733v -263.763" fill="none" stroke="black"/>
<path d="M63.9961,296.733h -6.80315" fill="none" stroke="black"/>
<path d="M63.9961,291.491h -6.80315" fill="none" stroke="black"/>
<path d="M70.7992,286.803h -13.6063" fill="none" stroke="black"/>
<text xml:space="preserve" x="48.7493" y="286.815" fill="black" font-size="7.55787" font-family="Helvetica">2
</text>
<text xml:space="preserve" x="44.7285" y="286.815" fill="black" font-size="7.55787" font-family="Times">&#8722;
</text>
<text xml:space="preserve" x="33.3363" y="292.176" fill="black" font-size="11.0868" font-family="Helvetica">10
</text>
<path d="M63.9961,255.956h -6.80315" fill="none" stroke="black"/>
<path d="M63.9961,237.912h -6.80315" fill="none" stroke="black"/>
<path d="M63.9961,225.109h -6.80315" fill="none" stroke="black"/>
<path d="M63.9961,215.179h -6.80315" fill="none" stroke="black"/>
<path d="M63.9961,207.065h -6.80315" fill="none" stroke="black"/>
<path d="M63.9961,200.205h -6.80315" fill="none" stroke="black"/>
<path d="M63.9961,194.262h -6.80315" fill="none" stroke="black"/>
<path d="M63.9961,189.021h -6.80315" fill="none" stroke="black"/>
<path d="M70.7992,184.332h -13.6063" fill="none" stroke="black"/>
<text xml:space="preserve" x="50.0895" y="184.285" fill="black" font-size="7.55787" font-family="Helvetica">1
</text>
<text xml:space="preserve" x="46.0688" y="184.285" fill="black" font-size="7.55787" font-family="Times">&#8722;
</text>
<text xml:space="preserve" x="34.6766" y="189.646" fill="black" font-size="11.0868" font-family="Helvetica">10
</text>
<path d="M63.9961,153.485h -6.80315" fill="none" stroke="black"/>
<path d="M63.9961,135.441h -6.80315" fill="none" stroke="black"/>
<path d="M63.9961,122.638h -6.80315" fill="none" stroke="black"/>
<path d="M63.9961,112.708h -6.80315" fill="none" stroke="black"/>
<path d="M63.9961,104.594h -6.80315" fill="none" stroke="black"/>
<path d="M63.9961,97.7342h -6.80315" fill="none" stroke="black"/>
<path d="M63.9961,91.7917h -6.80315" fill="none" stroke="black"/>
<path d="M63.9961,86.5501h -6.80315" fill="none" stroke="black"/>
<path d="M70.7992,81.8613h -13.6063" fill="none" stroke="black"/>
<text xml:space="preserve" x="48.7493" y="86.4466" fill="black" font-size="11.0868" font-family="Helvetica">1
</text>
<path d="M63.9961,51.0145h -6.80315" fill="none" stroke="black"/>
<path d="M63.9961,32.9703h -6.80315" fill="none" stroke="black"/>
<g transform="rotate(-90,22.6143,89.7973)">
<text xml:space="preserve" x="22.6143" y="89.7973" fill="black" font-size="11.0868" font-family="Helvetica">/g], uranium
</text>
</g>
<g transform="rotate(-90,17.9234,93.8181)">
<text xml:space="preserve" x="17.9234" y="93.8181" fill="black" font-size="7.55787" font-family="Helvetica">2
</text>
</g>
<g transform="rotate(-90,22.6143,113.922)">
<text xml:space="preserve" x="22.6143" y="113.922" fill="black" font-size="11.0868" font-family="Helvetica"> [cm
</text>
</g>
<g transform="rotate(-90,22.6143,119.283)">
<text xml:space="preserve" x="22.6143" y="119.283" fill="black" font-size="11.0868" font-family="Times">&#0961;
</text>
</g>
<g transform="rotate(-90,22.6143,123.304)">
<text xml:space="preserve" x="22.6143" y="123.304" fill="black" font-size="11.0868" font-family="Helvetica">/
</text>
</g>
<g transform="rotate(-90,22.6143,130.005)">
<text xml:space="preserve" x="22.6143" y="130.005" fill="black" font-size="11.0868" font-family="Times">&#0956;
</text>
</g>
<path d="M57.1929,178.231l 68.2651, 8.56486l 39.9325, 6.22136l 50.309, 8.93345l 46.2886, 9.23817l 21.9764, 4.74269l 39.9325, 9.24827l 28.3326, 7.07436l 39.9325, 10.6956l 28.3326, 8.08379l 21.9764, 6.53563l 17.9561, 5.50123l 28.3326, 8.9535l 21.9764,
 7.15649" fill="none" stroke="#0000ff" stroke-width="2"/>
<path d="M57.1929,52.0501l 68.2651, 18.2039l 39.9325, 40.7772l 50.309, 42.9913l 46.2886, 29.6031l 21.9764, 11.2192l 39.9325, 15.394l 28.3326, 6.0393l 39.9325, 4.11673l 28.3326, 0.553833l 21.9764, -0.713663l 17.9561, -1.18077l 28.3326, -2.78525l
 21.9764, -2.79281" fill="none" stroke="#ff0000" stroke-width="2"/>
<g stroke="black" stroke-width="1" fill="none">
<line x1="56.1929" y1="52.0501" x2="57.1929" y2="52.0501"/>
<line x1="124.458" y1="70.254" x2="125.458" y2="70.254"/>
<line x1="164.39" y1="111.031" x2="165.39" y2="111.031"/>
<line x1="214.699" y1="154.022" x2="215.699" y2="154.022"/>
<line x1="260.988" y1="183.626" x2="261.988" y2="183.626"/>
<line x1="282.965" y1="194.845" x2="283.965" y2="194.845"/>
<line x1="322.897" y1="210.239" x2="323.897" y2="210.239"/>
<line x1="351.23" y1="216.278" x2="352.23" y2="216.278"/>
<line x1="391.162" y1="220.395" x2="392.162" y2="220.395"/>
<line x1="419.495" y1="220.949" x2="420.495" y2="220.949"/>
<line x1="441.471" y1="220.235" x2="442.471" y2="220.235"/>
<line x1="459.427" y1="219.054" x2="460.427" y2="219.054"/>
<line x1="487.76" y1="216.269" x2="488.76" y2="216.269"/>
<line x1="509.736" y1="213.476" x2="510.736" y2="213.476"/>
</g>
<rect x="272.626" y="42.8615" width="221.102" height="72.5348" fill="white"/>
<text xml:space="preserve" x="468.92" y="63.6623" fill="black" font-size="12.5174" font-family="Helvetica">Z/A
</text>
<text xml:space="preserve" x="463.559" y="68.3532" fill="black" font-size="8.51157" font-family="Helvetica">A
</text>
<text xml:space="preserve" x="328.193" y="63.6623" fill="black" font-size="12.5174" font-family="Helvetica">Free-electron KN times N
</text>
<path d="M280.917,60.9951h 38.6929" fill="none" stroke="#0000ff" stroke-width="2"/>
<text xml:space="preserve" x="328.193" y="101.86" fill="black" font-size="12.5174" font-family="Helvetica">NIST total attenuation
</text>
<path d="M280.917,97.2625h 38.6929" fill="none" stroke="#ff0000" stroke-width="2"/></svg>
